<svg width="24" height="23" viewBox="0 0 24 23" fill="none" xmlns="http://www.w3.org/2000/svg">
<path d="M20.84 3.0204C20.3292 2.46391 19.7228 2.02246 19.0554 1.72128C18.3879 1.4201 17.6725 1.26508 16.95 1.26508C16.2275 1.26508 15.5121 1.4201 14.8446 1.72128C14.1772 2.02246 13.5708 2.46391 13.06 3.0204L12 4.17477L10.94 3.0204C9.90831 1.89686 8.50903 1.26566 7.05 1.26566C5.59097 1.26566 4.19169 1.89686 3.16 3.0204C2.12831 4.14394 1.54871 5.66779 1.54871 7.25671C1.54871 8.84564 2.12831 10.3695 3.16 11.493L4.22 12.6474L12 21.12L19.78 12.6474L20.84 11.493C21.351 10.9368 21.7564 10.2764 22.0329 9.5495C22.3095 8.82262 22.4518 8.04352 22.4518 7.25671C22.4518 6.46991 22.3095 5.69081 22.0329 4.96392C21.7564 4.23704 21.351 3.57663 20.84 3.0204Z" fill="#343A3F" stroke="#343A3F" stroke-width="2" stroke-linecap="round" stroke-linejoin="round"/>
</svg>
