<svg width="22" height="21" viewBox="0 0 22 21" fill="none" xmlns="http://www.w3.org/2000/svg">
<path d="M12.4248 7.22302L2.28332 17.1499C1.57532 17.8429 1.56525 18.9793 2.26086 19.6848V19.6848C2.97035 20.4043 4.13452 20.3939 4.83109 19.6619L14.5279 9.47116M12.4248 7.22302V7.22302C12.298 7.09444 12.296 6.8885 12.4202 6.75746L13.0725 6.06949C13.4083 5.71535 13.5314 5.19482 13.267 4.78465C12.2431 3.19649 9.7878 1.75116 8.5 1.5C11.3988 0.635333 14.13 1.7468 14.6984 2.2656C15.1106 2.64189 17.0491 4.56285 18.2264 5.73449C18.4106 5.91771 18.4053 6.21717 18.2151 6.39401V6.39401C18.0305 6.56559 18.0169 6.85756 18.2046 7.02579C18.8259 7.58293 19.2856 7.61834 19.8708 7.56889C19.8708 7.615 20.3937 8.08976 21 8.66621L17.817 11.8367L16.7446 10.797C16.8683 10.1279 16.6629 9.51942 16.3672 9.08171C16.196 8.82825 15.8411 8.84971 15.6288 9.06999C15.4864 9.21785 15.3449 9.35961 15.2202 9.4819C15.0266 9.67181 14.7183 9.66429 14.5279 9.47116V9.47116M12.4248 7.22302L14.5279 9.47116" stroke="#2F80ED" stroke-width="1.5" stroke-linecap="round" stroke-linejoin="round"/>
</svg>
